<svg width="256" height="256" viewBox="0 0 256 256" fill="none" xmlns="http://www.w3.org/2000/svg">
  <path d="M128 180c-40 0-72-32-72-72s32-72 72-72 72 32 72 72-32 72-72 72z" fill="#E6F7FF"/>
  <path d="M168 120c0 22.1-17.9 40-40 40s-40-17.9-40-40 17.9-40 40-40 40 17.9 40 40z" fill="#4FD1C5"/>
  <path d="M148 100c0 11-9 20-20 20s-20-9-20-20 9-20 20-20 20 9 20 20z" fill="#F6E05E"/>
  <path d="M138 90c0 5.5-4.5 10-10 10s-10-4.5-10-10 4.5-10 10-10 10 4.5 10 10z" fill="#ffffff"/>
  <path d="M80 140c-8.8 0-16-7.2-16-16s7.2-16 16-16" stroke="#4FD1C5" strokeWidth="4"/>
  <path d="M176 140c8.8 0 16-7.2 16-16s-7.2-16-16-16" stroke="#4FD1C5" strokeWidth="4"/>
</svg>
